<?xml version="1.0" standalone="no"?>
<!DOCTYPE svg PUBLIC "-//W3C//DTD SVG 20010904//EN"
 "http://www.w3.org/TR/2001/REC-SVG-20010904/DTD/svg10.dtd">
<svg version="1.0" xmlns="http://www.w3.org/2000/svg"
 width="512.000000pt" height="512.000000pt" viewBox="0 0 512.000000 512.000000"
 preserveAspectRatio="xMidYMid meet">
<metadata>
Created by potrace 1.14, written by Peter Selinger 2001-2017
</metadata>
<g transform="translate(0.000000,512.000000) scale(0.100000,-0.100000)"
fill="#000000" stroke="none">
<path d="M0 2560 l0 -2560 2560 0 2560 0 0 2560 0 2560 -2560 0 -2560 0 0
-2560z m3850 1559 c25 -11 57 -32 72 -46 25 -24 29 -24 78 -14 56 12 120 14
144 5 22 -9 20 -46 -5 -78 -11 -14 -49 -47 -85 -72 -45 -32 -64 -52 -64 -67 0
-12 -14 -45 -30 -74 -33 -57 -91 -99 -162 -115 -48 -10 -135 4 -164 28 -18 15
-18 15 1 8 44 -15 71 -15 84 0 8 9 22 16 32 16 9 0 28 14 40 32 26 36 33 37
-98 -11 -151 -56 -302 -65 -311 -19 -5 24 32 71 84 108 42 30 44 34 44 81 0
46 2 49 25 49 18 0 31 9 43 31 9 16 29 44 44 61 26 30 27 33 11 50 -9 10 -14
18 -12 18 2 0 22 7 44 15 57 20 132 18 185 -6z m-1600 -1091 c106 -288 199
-534 206 -548 11 -21 13 36 13 345 0 204 -4 408 -8 453 -7 75 -11 87 -39 115
-29 29 -36 31 -122 35 l-90 4 0 59 0 59 385 0 385 0 0 -59 0 -58 -79 -5 c-95
-5 -125 -22 -152 -83 -18 -41 -19 -68 -17 -455 l3 -411 375 397 c206 218 390
415 408 437 60 75 30 117 -85 117 l-63 0 0 60 0 60 360 0 360 0 0 -59 0 -58
-63 -6 c-90 -8 -166 -40 -244 -102 -38 -29 -189 -178 -337 -330 -254 -261
-269 -278 -256 -299 37 -59 648 -862 689 -905 67 -69 119 -93 214 -99 l77 -5
0 -63 0 -64 -420 0 -420 0 0 65 0 65 80 0 c69 0 82 3 100 22 26 28 21 52 -24
122 -59 91 -497 681 -506 681 -4 0 -63 -57 -129 -127 l-121 -126 1 -229 c0
-255 6 -285 58 -320 28 -19 47 -23 112 -23 l79 0 0 -65 0 -65 -385 0 -385 0 0
65 0 65 71 0 c65 0 73 2 101 30 39 39 39 40 -63 339 -43 128 -79 235 -79 237
0 3 -163 3 -362 2 l-361 -3 -88 -245 c-48 -135 -88 -257 -89 -272 0 -15 11
-39 24 -55 21 -25 31 -28 100 -31 l76 -4 0 -64 0 -64 -295 0 -295 0 0 65 0 65
40 0 c87 0 139 44 184 156 13 33 162 426 331 874 169 448 309 818 312 822 2 5
57 8 122 8 l118 0 193 -522z"/>
<path d="M3847 4043 c-45 -19 -57 -51 -33 -89 10 -14 25 -27 34 -30 9 -3 27
-11 39 -17 18 -8 30 -6 58 9 19 10 35 22 35 26 0 5 7 8 15 8 8 0 29 14 47 31
l33 30 -47 -6 c-37 -5 -49 -3 -60 12 -16 21 -53 43 -70 42 -7 -1 -30 -8 -51
-16z"/>
<path d="M3697 3879 c-9 -6 -17 -19 -17 -29 0 -21 -35 -50 -61 -50 -9 0 -19
-7 -23 -15 -3 -9 0 -15 9 -15 20 0 185 63 185 70 0 4 -17 16 -38 27 -27 16
-42 19 -55 12z"/>
<path d="M3493 3764 l-28 -26 39 6 c46 6 48 8 40 30 -8 22 -18 20 -51 -10z"/>
<path d="M1814 3118 c-32 -90 -99 -278 -150 -418 l-91 -255 300 -3 c165 -1
302 -1 304 1 4 5 -287 818 -297 830 -4 5 -33 -65 -66 -155z"/>
</g>
</svg>
